<svg version="1.0" xmlns="http://www.w3.org/2000/svg"
 width="200.000000pt" height="200.000000pt" viewBox="0 0 200.000000 200.000000"
 preserveAspectRatio="xMidYMid meet">
<g transform="translate(0.000000,200.000000) scale(0.100000,-0.100000)"
fill="#000000" stroke="none">
<path d="M370 1130 l0 -50 45 0 45 0 0 -130 0 -130 55 0 55 0 0 130 0 130 45
0 45 0 0 50 0 50 -145 0 -145 0 0 -50z"/>
<path d="M756 1171 c-3 -4 -19 -45 -36 -90 -25 -69 -30 -97 -30 -172 l0 -89
49 0 50 0 3 43 3 42 45 0 45 0 3 -43 3 -43 52 3 52 3 3 73 c2 60 -3 88 -29
165 -17 50 -36 98 -41 105 -12 14 -164 17 -172 3z"/>
<path d="M1102 1165 c-37 -16 -52 -48 -52 -111 0 -55 30 -90 86 -99 74 -12 85
-16 81 -28 -2 -8 -32 -13 -85 -15 l-82 -3 0 -44 0 -45 111 0 c109 0 111 0 140
29 25 25 29 37 29 84 0 74 -18 93 -99 109 -91 18 -91 36 1 40 l73 3 0 45 0 45
-85 2 c-57 2 -96 -2 -118 -12z"/>
<path d="M1390 1000 l0 -181 53 3 52 3 3 63 3 62 39 0 39 0 3 -62 3 -63 53 -3
52 -3 0 95 c0 94 -1 96 -29 117 l-29 21 24 52 c13 28 24 57 24 64 0 13 -77 17
-96 4 -6 -4 -24 -35 -39 -69 -15 -35 -31 -63 -36 -63 -4 0 -9 30 -11 68 l-3
67 -52 3 -53 3 0 -181z"/>
<path d="M1754 1166 c-3 -8 -4 -29 -2 -48 3 -29 7 -33 36 -36 l32 -3 0 -85 0
-84 -35 0 c-35 0 -35 0 -35 -45 l0 -45 125 0 125 0 0 45 c0 45 0 45 -35 45
l-35 0 0 84 0 85 33 3 c31 3 32 5 32 48 l0 45 -118 3 c-95 2 -118 0 -123 -12z"/>
</g>
</svg>